solid OpenSCAD_Model
  facet normal 1 -0 0
    outer loop
      vertex 18.9 0 14
      vertex 18.9 11.7 0
      vertex 18.9 11.7 14
    endloop
  endfacet
  facet normal 1 0 0
    outer loop
      vertex 18.9 11.7 0
      vertex 18.9 0 14
      vertex 18.9 0 0
    endloop
  endfacet
  facet normal -0 0 1
    outer loop
      vertex 3.15 11.7 3
      vertex 15.75 0 3
      vertex 15.75 11.7 3
    endloop
  endfacet
  facet normal 0 0 1
    outer loop
      vertex 15.75 0 3
      vertex 3.15 11.7 3
      vertex 3.15 0 3
    endloop
  endfacet
  facet normal 0 0 -1
    outer loop
      vertex 0 0 0
      vertex 18.9 11.7 0
      vertex 18.9 0 0
    endloop
  endfacet
  facet normal -0 0 -1
    outer loop
      vertex 18.9 11.7 0
      vertex 0 0 0
      vertex 0 11.7 0
    endloop
  endfacet
  facet normal -1 0 0
    outer loop
      vertex 0 0 0
      vertex 0 11.7 14
      vertex 0 11.7 0
    endloop
  endfacet
  facet normal -1 -0 0
    outer loop
      vertex 0 11.7 14
      vertex 0 0 0
      vertex 0 0 14
    endloop
  endfacet
  facet normal 0 1 0
    outer loop
      vertex 18.9 11.7 14
      vertex 15.75 11.7 3
      vertex 15.75 11.7 14
    endloop
  endfacet
  facet normal 0 1 0
    outer loop
      vertex 15.75 11.7 3
      vertex 18.9 11.7 0
      vertex 3.15 11.7 3
    endloop
  endfacet
  facet normal 0 1 -0
    outer loop
      vertex 18.9 11.7 0
      vertex 15.75 11.7 3
      vertex 18.9 11.7 14
    endloop
  endfacet
  facet normal 0 1 -0
    outer loop
      vertex 3.15 11.7 3
      vertex 0 11.7 14
      vertex 3.15 11.7 14
    endloop
  endfacet
  facet normal 0 1 0
    outer loop
      vertex 3.15 11.7 3
      vertex 0 11.7 0
      vertex 0 11.7 14
    endloop
  endfacet
  facet normal 0 1 0
    outer loop
      vertex 0 11.7 0
      vertex 3.15 11.7 3
      vertex 18.9 11.7 0
    endloop
  endfacet
  facet normal 0 -1 0
    outer loop
      vertex 0 0 14
      vertex 3.15 0 3
      vertex 3.15 0 14
    endloop
  endfacet
  facet normal 0 -1 -0
    outer loop
      vertex 3.15 0 3
      vertex 0 0 0
      vertex 15.75 0 3
    endloop
  endfacet
  facet normal 0 -1 0
    outer loop
      vertex 0 0 0
      vertex 3.15 0 3
      vertex 0 0 14
    endloop
  endfacet
  facet normal 0 -1 0
    outer loop
      vertex 15.75 0 3
      vertex 18.9 0 14
      vertex 15.75 0 14
    endloop
  endfacet
  facet normal 0 -1 0
    outer loop
      vertex 15.75 0 3
      vertex 18.9 0 0
      vertex 18.9 0 14
    endloop
  endfacet
  facet normal 0 -1 0
    outer loop
      vertex 18.9 0 0
      vertex 15.75 0 3
      vertex 0 0 0
    endloop
  endfacet
  facet normal 1 -0 0
    outer loop
      vertex 3.15 0 14
      vertex 3.15 11.7 3
      vertex 3.15 11.7 14
    endloop
  endfacet
  facet normal 1 0 0
    outer loop
      vertex 3.15 11.7 3
      vertex 3.15 0 14
      vertex 3.15 0 3
    endloop
  endfacet
  facet normal -0 0 1
    outer loop
      vertex 0 11.7 14
      vertex 3.15 0 14
      vertex 3.15 11.7 14
    endloop
  endfacet
  facet normal 0 0 1
    outer loop
      vertex 3.15 0 14
      vertex 0 11.7 14
      vertex 0 0 14
    endloop
  endfacet
  facet normal -0 0 1
    outer loop
      vertex 15.75 11.7 14
      vertex 18.9 0 14
      vertex 18.9 11.7 14
    endloop
  endfacet
  facet normal 0 0 1
    outer loop
      vertex 18.9 0 14
      vertex 15.75 11.7 14
      vertex 15.75 0 14
    endloop
  endfacet
  facet normal -1 0 0
    outer loop
      vertex 15.75 0 3
      vertex 15.75 11.7 14
      vertex 15.75 11.7 3
    endloop
  endfacet
  facet normal -1 -0 0
    outer loop
      vertex 15.75 11.7 14
      vertex 15.75 0 3
      vertex 15.75 0 14
    endloop
  endfacet
endsolid OpenSCAD_Model
